<?xml version="1.0" encoding="UTF-8" standalone="no"?><!-- Generator: Gravit.io --><svg xmlns="http://www.w3.org/2000/svg" xmlns:xlink="http://www.w3.org/1999/xlink" style="isolation:isolate" viewBox="0 0 3400 4000" width="3400pt" height="4000pt"><g><path d=" M 391.442 24.049 L 391.442 3972.214 L 3366.182 3972.214 L 3366.182 902.176 L 2488.061 24.049 L 391.442 24.049 Z " fill="rgb(250,250,250)"/><path d=" M 2488.507 25.192 L 3362.751 899.432 L 2488.507 899.432 L 2488.507 25.192 Z " fill="rgb(213,213,213)"/><path d=" M 393.295 1653.146 C 265.288 1525.137 137.283 1397.128 9.278 1269.131 L 393.295 1269.131 L 393.295 1653.146 Z " fill="rgb(102,88,234)"/><path d=" M 408.594 3955.074 L 3349.03 3955.074 L 3349.03 909.277 L 2480.949 41.202 L 408.594 41.202 L 408.594 3955.074 Z  M 3383.333 3989.377 L 374.291 3989.377 L 374.291 6.898 L 2495.162 6.898 L 2500.182 11.921 L 3383.333 895.076 L 3383.333 3989.377 Z " fill="rgb(27,22,65)"/><path d=" M 2505.659 882.28 L 3321.347 882.28 L 2505.659 66.601 L 2505.659 882.28 Z  M 3362.751 916.584 L 2488.507 916.584 C 2479.028 916.584 2471.355 908.911 2471.355 899.432 L 2471.355 25.193 C 2471.355 18.256 2475.529 12.002 2481.944 9.348 C 2488.347 6.693 2495.734 8.158 2500.639 13.065 L 3374.872 887.312 C 3379.789 892.217 3381.252 899.592 3378.599 906.007 C 3375.947 912.41 3369.692 916.584 3362.751 916.584 Z " fill="rgb(27,22,65)"/><path d=" M 2086.952 1269.131 L 9.278 1269.131 L 9.278 424.083 L 2086.952 424.083 L 2086.952 1269.131 Z " fill="rgb(102,88,234)"/><path d=" M 181.861 1104.681 C 155.021 1091.325 134.151 1072.447 119.258 1048.046 L 205.556 985.248 C 214.802 997.059 225.908 1006.184 238.88 1012.599 C 251.846 1019.025 265.398 1022.227 279.525 1022.227 C 299.812 1022.227 315.481 1015.103 326.527 1000.856 C 337.568 986.597 343.093 966.507 343.093 940.562 L 343.093 558.766 L 452.507 558.766 L 452.507 940.939 C 452.507 979.725 445.506 1012.862 431.509 1040.339 C 417.507 1067.827 397.156 1088.752 370.446 1103.137 C 343.731 1117.521 311.502 1124.714 273.746 1124.714 C 239.326 1124.714 208.698 1118.036 181.861 1104.681 Z " fill="rgb(255,255,255)"/><path d=" M 673.447 1116.618 C 647.891 1111.221 623.879 1103.331 601.41 1092.926 C 578.93 1082.521 558.839 1070 541.116 1055.364 L 590.044 968.29 C 611.621 986.014 636.525 999.689 664.78 1009.329 C 693.034 1018.956 722.055 1023.77 751.853 1023.77 C 786.271 1023.77 812.97 1017.939 831.986 1006.241 C 850.99 994.555 860.492 978.055 860.492 956.742 L 860.492 956.353 C 860.492 941.465 856.261 929.642 847.777 920.906 C 839.304 912.181 828.258 905.755 814.651 901.65 C 801.033 897.545 783.572 893.818 762.258 890.479 C 761.481 890.216 760.772 890.09 760.132 890.09 C 759.491 890.09 758.782 889.964 758.016 889.701 L 749.543 888.546 C 712.038 882.646 680.959 875.26 656.307 866.398 C 631.654 857.536 610.718 841.998 593.509 819.778 C 576.3 797.566 567.701 766.035 567.701 725.197 L 567.701 724.812 C 567.701 688.599 575.785 657.652 591.965 631.965 C 608.156 606.286 631.654 586.697 662.47 573.214 C 693.297 559.729 730.528 552.987 774.196 552.987 C 794.229 552.987 814.708 555.298 835.645 559.921 C 856.57 564.544 877.06 571.228 897.094 579.954 C 917.127 588.69 936.131 599.219 954.117 611.547 L 909.42 700.926 C 887.843 686.034 865.306 674.476 841.808 666.253 C 818.31 658.037 795.773 653.924 774.196 653.924 C 741.836 653.924 716.795 659.258 699.072 669.913 C 681.348 680.574 672.486 695.533 672.486 714.796 L 672.486 715.181 C 672.486 731.363 677.106 744.142 686.356 753.515 C 695.607 762.893 707.03 769.762 720.648 774.125 C 734.255 778.496 753.397 783.118 778.049 787.994 C 779.067 788.254 780.108 788.446 781.137 788.573 C 782.154 788.704 783.183 788.899 784.213 789.151 C 785.756 789.41 787.231 789.729 788.649 790.113 C 790.056 790.499 791.531 790.824 793.074 791.077 C 828.521 798.012 858.113 806.426 881.874 816.312 C 905.635 826.201 925.474 842.124 941.402 864.088 C 957.319 886.042 965.289 916.035 965.289 954.043 L 965.289 954.809 C 965.289 990.519 956.93 1021.072 940.247 1046.502 C 923.541 1071.932 899.209 1091.325 867.238 1104.681 C 835.256 1118.036 796.79 1124.714 751.853 1124.714 C 725.142 1124.714 699.003 1122.015 673.447 1116.618 Z " fill="rgb(255,255,255)"/><path d=" M 1289.284 1007.019 C 1303.669 998.923 1314.771 987.432 1322.615 972.533 C 1330.448 957.645 1334.359 940.425 1334.359 920.906 L 1334.359 756.788 C 1334.359 737.273 1330.448 720.063 1322.615 705.164 C 1314.771 690.272 1303.669 678.774 1289.284 670.683 C 1274.899 662.594 1258.205 658.548 1239.201 658.548 C 1220.197 658.548 1203.503 662.594 1189.118 670.683 C 1174.734 678.774 1163.631 690.272 1155.798 705.164 C 1147.954 720.063 1144.044 737.273 1144.044 756.788 L 1144.044 920.906 C 1144.044 940.425 1147.954 957.645 1155.798 972.533 C 1163.631 987.432 1174.734 998.923 1189.118 1007.019 C 1203.503 1015.103 1220.197 1019.151 1239.201 1019.151 C 1258.205 1019.151 1274.899 1015.103 1289.284 1007.019 Z  M 1131.912 1099.089 C 1100.958 1082.017 1077.015 1057.868 1060.057 1026.663 C 1043.112 995.459 1034.627 959.314 1034.627 918.207 L 1034.627 759.487 C 1034.627 718.396 1043.112 682.241 1060.057 651.036 C 1077.015 619.83 1100.958 595.692 1131.912 578.607 C 1162.853 561.529 1198.62 552.987 1239.201 552.987 C 1279.782 552.987 1315.549 561.529 1346.502 578.607 C 1377.444 595.692 1401.399 619.83 1418.345 651.036 C 1435.302 682.241 1443.775 718.396 1443.775 759.487 L 1443.775 918.207 C 1443.775 959.314 1435.302 995.459 1418.345 1026.663 C 1401.399 1057.868 1377.444 1082.017 1346.502 1099.089 C 1315.549 1116.172 1279.782 1124.714 1239.201 1124.714 C 1198.62 1124.714 1162.853 1116.172 1131.912 1099.089 Z " fill="rgb(255,255,255)"/><path d=" M 1547.794 558.766 L 1676.855 558.766 L 1885.282 987.946 L 1876.032 997.963 L 1876.032 558.766 L 1976.975 558.766 L 1976.975 1118.551 L 1847.137 1118.551 L 1639.487 695.918 L 1648.726 685.902 L 1648.726 1118.551 L 1547.794 1118.551 L 1547.794 558.766 Z " fill="rgb(255,255,255)"/><path d=" M 1914.309 2142.33 L 1607.409 2142.33 L 1607.409 2756.13 L 1914.309 2756.13 L 1914.309 2756.13 Q 1977.4 2756.13 2033.005 2732.069 L 2033.005 2732.069 L 2033.005 2732.069 Q 2088.611 2708.009 2130.315 2666.305 L 2130.315 2666.305 L 2130.315 2666.305 Q 2172.019 2624.601 2196.079 2568.461 L 2196.079 2568.461 L 2196.079 2568.461 Q 2220.139 2512.321 2220.139 2449.23 L 2220.139 2449.23 L 2220.139 2449.23 Q 2220.139 2386.139 2196.079 2329.999 L 2196.079 2329.999 L 2196.079 2329.999 Q 2172.019 2273.859 2130.315 2232.155 L 2130.315 2232.155 L 2130.315 2232.155 Q 2088.611 2190.45 2033.005 2166.39 L 2033.005 2166.39 L 2033.005 2166.39 Q 1977.4 2142.33 1914.309 2142.33 L 1914.309 2142.33 L 1914.309 2142.33 Z  M 1607.409 3061.96 L 1607.409 3368.86 L 1300.51 3368.86 L 1300.51 1835.431 L 1914.309 1835.431 L 1914.309 1835.431 Q 1998.786 1835.431 2076.848 1857.352 L 2076.848 1857.352 L 2076.848 1857.352 Q 2154.91 1879.273 2222.813 1919.373 L 2222.813 1919.373 L 2222.813 1919.373 Q 2290.715 1959.474 2346.856 2015.614 L 2346.856 2015.614 L 2346.856 2015.614 Q 2402.996 2071.754 2443.096 2140.192 L 2443.096 2140.192 L 2443.096 2140.192 Q 2483.196 2208.629 2505.117 2286.691 L 2505.117 2286.691 L 2505.117 2286.691 Q 2527.039 2364.752 2527.039 2449.23 L 2527.039 2449.23 L 2527.039 2449.23 Q 2527.039 2575.412 2478.919 2687.157 L 2478.919 2687.157 L 2478.919 2687.157 Q 2430.799 2798.903 2347.39 2882.311 L 2347.39 2882.311 L 2347.39 2882.311 Q 2263.982 2965.72 2152.236 3013.84 L 2152.236 3013.84 L 2152.236 3013.84 Q 2040.491 3061.96 1914.309 3061.96 L 1914.309 3061.96 L 1607.409 3061.96 L 1607.409 3061.96 Z " fill="rgb(102,88,234)"/></g></svg>